<?xml version="1.0" encoding="iso-8859-1"?>
<!-- Generator: Adobe Illustrator 19.0.0, SVG Export Plug-In . SVG Version: 6.00 Build 0)  -->
<svg xmlns="http://www.w3.org/2000/svg" xmlns:xlink="http://www.w3.org/1999/xlink" version="1.1" id="Layer_1" x="0px" y="0px" viewBox="0 0 512.021 512.021" style="enable-background:new 0 0 512.021 512.021;" xml:space="preserve" width="512px" height="512px">
<g>
	<g>
		<path d="M404.715,298.677c-17.365,0-32.704-5.76-43.136-16.213L231.04,151.925c-11.925-11.904-18.389-27.008-17.749-41.472    c1.131-26.325-9.899-51.456-33.707-76.864c-20.011-21.333-46.656-33.579-74.176-33.579c-0.021,0-0.021,0-0.021,0    C81.664,0.309,59.072,8.608,40,23.968c-2.731,2.197-4.181,5.568-3.947,9.045c0.235,3.477,2.155,6.613,5.163,8.405l65.195,39.104    c-1.941,19.605-13.525,36.821-31.253,45.973L16.768,91.488c-3.243-1.963-7.723-1.792-11.029,0    c-3.221,1.771-5.333,5.056-5.547,8.747c-1.749,29.739,8.491,58.005,28.864,79.595c20.096,21.291,48.384,33.515,77.632,33.515    c7.723,0,15.744-1.045,24.384-3.221l149.867,149.909c11.968,11.947,18.453,27.093,17.813,41.579    c-1.109,26.155,9.771,51.115,33.237,76.309c20.181,21.653,46.955,34.091,73.387,34.091c0.021,0,0.192,0,0.192,0    c22.016-0.043,43.264-6.912,61.483-19.883c2.944-2.091,4.608-5.504,4.48-9.109c-0.149-3.584-2.091-6.869-5.184-8.725    l-71.36-42.816c1.941-19.584,13.525-36.8,31.253-45.973l68.437,41.045c3.072,1.856,6.891,2.005,10.155,0.448    c3.243-1.579,5.483-4.693,5.909-8.277l0.363-2.603c0.469-3.541,0.917-7.083,0.917-10.773    C512.021,346.528,464.171,298.677,404.715,298.677z" fill="#FFFFFF"/>
	</g>
</g>
<g>
</g>
<g>
</g>
<g>
</g>
<g>
</g>
<g>
</g>
<g>
</g>
<g>
</g>
<g>
</g>
<g>
</g>
<g>
</g>
<g>
</g>
<g>
</g>
<g>
</g>
<g>
</g>
<g>
</g>
</svg>
