<?xml version="1.0" encoding="iso-8859-1"?>
<!-- Generator: Adobe Illustrator 19.0.0, SVG Export Plug-In . SVG Version: 6.00 Build 0)  -->
<svg xmlns="http://www.w3.org/2000/svg" xmlns:xlink="http://www.w3.org/1999/xlink" version="1.1" id="Layer_1" x="0px" y="0px" viewBox="0 0 512.012 512.012" style="enable-background:new 0 0 512.012 512.012;" xml:space="preserve" width="512px" height="512px">
<g>
	<g>
		<path d="M404.998,298.657c-0.107,0-0.213,0-0.32,0c-17.365,0-32.683-5.76-43.136-16.213L231.003,151.905    c-11.925-11.883-18.368-27.008-17.728-41.451c1.131-26.325-9.899-51.477-33.707-76.864C159.238,11.916,131.675-0.436,105.35,0.012    C81.649,0.31,59.057,8.588,39.985,23.969c-2.731,2.176-4.181,5.547-3.947,9.024c0.235,3.477,2.155,6.613,5.163,8.405    l65.173,39.125c-1.92,19.584-13.504,36.8-31.232,45.973L16.774,91.489c-3.264-1.963-7.744-1.813-11.029,0    c-3.243,1.771-5.333,5.077-5.547,8.747c-1.749,29.739,8.491,58.005,28.843,79.595c20.096,21.291,48.384,33.493,77.632,33.493    c7.723,0,15.744-1.045,24.384-3.221l149.867,149.909c11.968,11.947,18.453,27.093,17.813,41.579    c-1.088,26.133,9.771,51.093,33.237,76.309c20.203,21.675,46.955,34.091,73.408,34.091c0.043,0,0.107,0,0.149,0.021    c22.016-0.043,43.264-6.933,61.483-19.883c2.944-2.091,4.608-5.525,4.48-9.109c-0.149-3.584-2.069-6.869-5.184-8.725    l-71.36-42.816c1.941-19.605,13.525-36.8,31.253-45.973l68.437,41.045c3.072,1.856,6.912,2.005,10.155,0.448    c3.243-1.6,5.461-4.693,5.909-8.277l0.363-2.603c0.491-3.563,0.939-7.104,0.939-10.795    C512.006,346.508,464.155,298.657,404.998,298.657z M432.134,364.193c-3.093-1.899-6.997-2.048-10.24-0.405l-4.501,2.24    c-27.179,13.589-44.053,40.917-44.053,71.296c0,3.755,1.963,7.232,5.184,9.152l61.291,36.779    c-10.773,4.843-22.4,7.381-34.304,7.403c-0.043,0-0.085,0-0.128,0c-20.565,0-41.621-9.963-57.792-27.307    c-19.648-21.099-28.395-40.427-27.52-60.843c0.875-20.459-7.893-41.451-24.064-57.6L141.745,190.625    c-2.027-2.027-4.757-3.115-7.552-3.115c-1.024,0-2.069,0.128-3.072,0.448c-9.131,2.752-16.896,4.032-24.448,4.032    c-23.744,0-45.781-9.515-62.101-26.816c-12.053-12.8-19.691-28.523-22.272-45.504l46.912,28.117    c3.072,1.899,6.976,2.027,10.24,0.405l4.501-2.24c27.179-13.589,44.053-40.917,44.053-71.296c0-3.755-1.963-7.211-5.184-9.152    l-56.32-33.771c12.139-6.677,25.408-10.24,39.147-10.411c21.291-0.235,42.112,9.536,58.389,26.859    c19.925,21.291,28.8,40.768,27.904,61.333c-0.875,20.416,7.851,41.365,23.979,57.472l130.539,130.539    c14.464,14.485,35.136,22.464,58.475,22.464c0.149,0,0.277,0,0.405,0c44.992,0,81.941,34.987,85.077,79.168L432.134,364.193z" fill="#FFFFFF"/>
	</g>
</g>
<g>
</g>
<g>
</g>
<g>
</g>
<g>
</g>
<g>
</g>
<g>
</g>
<g>
</g>
<g>
</g>
<g>
</g>
<g>
</g>
<g>
</g>
<g>
</g>
<g>
</g>
<g>
</g>
<g>
</g>
</svg>
