/* XPM */
static const char *GostCryptIcon48x48[] = {
"48 48 108 2 0 0",
"   c #063E0D",
"!  c #27A527",
"#  c #27A327",
"$  c #247024",
"%  c #234322",
"&  c #222920",
"'  c #212020",
"(  c #212620",
")  c #233B21",
"*  c #246424",
"+  c #279D26",
",  c #268B25",
"-  c #223321",
".  c #222C20",
"/  c #244B22",
"0  c #245823",
"1  c #244F23",
"2  c #257824",
"3  c #268625",
"4  c #222A20",
"5  c #257224",
"6  c #27A427",
"7  c #258225",
"8  c #246D24",
"9  c #279A26",
":  c #222B20",
";  c #222D20",
"<  c #269326",
"=  c #279E27",
">  c #233D21",
"?  c #212220",
"@  c #245723",
"A  c #269926",
"B  c #233A21",
"C  c #27A227",
"D  c #212820",
"E  c #234722",
"F  c #246324",
"G  c #268925",
"H  c #258425",
"I  c #257424",
"J  c #269226",
"K  c #257124",
"L  c #268C25",
"M  c #212420",
"N  c #245223",
"O  c #268E26",
"P  c #245023",
"Q  c #258125",
"R  c #257A24",
"S  c #269826",
"T  c #245F24",
"U  c #246C24",
"V  c #244C22",
"W  c #27A027",
"X  c #223120",
"Y  c #212520",
"Z  c #223821",
"[  c #257C25",
"]  c #246024",
"^  c #245E24",
"_  c #234922",
"`  c #246824",
"a  c #257524",
"b  c #212120",
"c  c #246E24",
"d  c #212320",
"e  c #268725",
"f  c #233F21",
"g  c #223220",
"h  c #245623",
"i  c #279F27",
"j  c #223221",
"k  c #212720",
"l  c #222820",
"m  c #257E25",
"n  c #222F20",
"o  c #234021",
"p  c #234522",
"q  c #222E20",
"r  c #245A23",
"s  c #269726",
"t  c #246524",
"u  c #244D22",
"v  c #246F24",
"w  c #223621",
"x  c #269026",
"y  c #246224",
"z  c #268C26",
"{  c #279C26",
"|  c #268A25",
"}  c #257024",
"~  c #246624",
" ! c #245323",
"!! c #223721",
"#! c #245423",
"$! c #269526",
"%! c #234622",
"&! c #233921",
"'! c #257724",
"(! c #246A24",
")! c #269426",
"*! c #269126",
"+! c #269626",
",! c #234822",
"-! c #245B23",
".! c #268F26",
"/! c None",
"/!/!/!/!/!/!/!/!/!                                                            /!/!/!/!/!/!/!/!/!",
"/!/!/!/!/!/!/!/!/!                                                            /!/!/!/!/!/!/!/!/!",
"/!/!/!/!/!/!/!/!/!    ! ! ! ! ! ! ! ! ! ! ! ! ! ! ! ! ! ! ! ! ! ! ! ! ! !     /!/!/!/!/!/!/!/!/!",
"/!/!/!/!/!/!/!/!/!    ! ! ! ! ! ! ! ! ! ! ! ! ! ! ! ! ! ! ! ! ! ! ! ! ! !     /!/!/!/!/!/!/!/!/!",
"/!/!/!/!/!/!/!/!/!    ! ! ! ! ! ! ! ! ! ! ! ! ! ! ! ! ! ! ! ! ! ! ! ! ! !     /!/!/!/!/!/!/!/!/!",
"/!/!/!/!/!/!/!/!/!    ! ! ! ! ! ! ! ! ! ! ! ! ! ! ! ! ! ! ! ! ! ! ! ! ! !     /!/!/!/!/!/!/!/!/!",
"/!/!/!/!/!/!/!/!/!    ! ! ! ! ! ! ! ! ! ! ! ! ! ! ! ! ! ! ! ! ! ! ! ! ! !     /!/!/!/!/!/!/!/!/!",
"/!/!/!/!/!/!/!/!/!    ! ! ! ! ! ! ! ! ! ! ! ! ! ! ! ! ! ! ! ! ! ! ! ! ! !     /!/!/!/!/!/!/!/!/!",
"/!/!/!/!/!/!/!/!/!    ! ! ! ! ! ! ! # $ % & ' ( ) * + ! ! ! ! ! ! ! ! ! !     /!/!/!/!/!/!/!/!/!",
"/!/!/!/!/!/!/!/!/!    ! ! ! ! ! ! , - ' . / 0 1 - ' & 2 ! ! ! ! ! ! ! ! !     /!/!/!/!/!/!/!/!/!",
"/!/!/!/!/!/!/!/!/!    ! ! ! ! ! 3 ( 4 5 6 ! ! ! ! 7 - ' 8 ! ! ! ! ! ! ! !     /!/!/!/!/!/!/!/!/!",
"/!/!/!/!/!/!/!/!/!    ! ! ! ! 9 : ; < ! ! ! ! ! ! ! = > ? 3 ! ! ! ! ! ! !     /!/!/!/!/!/!/!/!/!",
"/!/!/!/!/!/!/!/!/!    ! ! ! ! @ ' 3 ! ! ! ! ! ! ! ! ! A & B ! ! ! ! ! ! !     /!/!/!/!/!/!/!/!/!",
"/!/!/!/!/!/!/!/!/!    ! ! ! C D E ! ! ! ! ! ! ! ! ! ! ! F ' G ! ! ! ! ! !     /!/!/!/!/!/!/!/!/!",
"/!/!/!/!/!/!/!/!/!    ! ! ! H ' I ! ! ! ! ! ! ! ! ! ! ! J ' F ! ! ! ! ! !     /!/!/!/!/!/!/!/!/!",
"/!/!/!/!/!/!/!/!/!    ! ! ! K ' L ! ! ! ! ! ! ! ! ! ! ! ! M N ! ! ! ! ! !     /!/!/!/!/!/!/!/!/!",
"/!/!/!/!/!/!/!/!/!    ! ! ! $ ' O ! ! ! ! ! ! ! ! ! ! ! ! ( P ! ! ! ! ! !     /!/!/!/!/!/!/!/!/!",
"/!/!/!/!/!/!/!/!/!    ! ! ! Q ' R ! ! ! ! ! ! ! ! ! ! ! S ' T ! ! ! ! ! !     /!/!/!/!/!/!/!/!/!",
"/!/!/!/!/!/!/!/!/!    ! ! ! = M P ! ! ! ! ! ! ! ! ! ! ! U ' Q ! ! ! ! ! !     /!/!/!/!/!/!/!/!/!",
"/!/!/!/!/!/!/!/!/!    ! ! ! ! V M J ! ! ! ! ! ! ! ! ! W X X 6 ! ! ! ! ! !     /!/!/!/!/!/!/!/!/!",
"/!/!/!/!/!/!/!/!/!    ! ! ! ! J Y Z = [ ] R ! = ^ _ ` V ' 2 ! ! ! ! ! ! !     /!/!/!/!/!/!/!/!/!",
"/!/!/!/!/!/!/!/!/!    ! ! ! ! ! a b & ' ' ' : D ' & ' ' @ ! ! ! ! ! ! ! !     /!/!/!/!/!/!/!/!/!",
"/!/!/!/!/!/!/!/!/!    ! ! ! ! ! ! c ' ' X ' ' ' ' d ' ' S ! ! ! ! ! ! ! !     /!/!/!/!/!/!/!/!/!",
"/!/!/!/!/!/!/!/!/!    ! ! ! ! ! ! e ' f M ' ' ' ' g h ' J ! ! ! ! ! ! ! !     /!/!/!/!/!/!/!/!/!",
"/!/!/!/!/!/!/!/!/!    ! ! ! ! ! ! i 4 j ; ' k 4 ' ; k Z ! ! ! ! ! ! ! ! !     /!/!/!/!/!/!/!/!/!",
"/!/!/!/!/!/!/!/!/!    ! ! ! ! ! ! ! 7 l ' ' k k ? Y ' L ! ! ! ! ! ! ! ! !     /!/!/!/!/!/!/!/!/!",
"/!/!/!/!/!/!/!/!/!    ! ! ! ! ! ! ! ! X % m E ' * H ' 8 ! ! ! ! ! ! ! ! !     /!/!/!/!/!/!/!/!/!",
"/!/!/!/!/!/!/!/!/!    ! ! ! ! ! ! ! = ' ^ ! 6 D V ! n o ! ! ! ! ! ! ! ! !     /!/!/!/!/!/!/!/!/!",
"/!/!/!/!/!/!/!/!/!    ! ! ! ! ! ! ! 7 ' 2 ! ! p q ! r b s ! ! ! ! ! ! ! !     /!/!/!/!/!/!/!/!/!",
"/!/!/!/!/!/!/!/!/!    ! ! ! ! ! ! ! ` ' < ! ! t ' < , ' ` ! ! ! ! ! ! ! !     /!/!/!/!/!/!/!/!/!",
"/!/!/!/!/!/!/!/!/!    ! ! ! ! ! ! ! u l ! ! ! G ' v ! j B ! ! ! ! ! ! ! !     /!/!/!/!/!/!/!/!/!",
"/!/!/!/!/!/!/!/!/!    ! ! ! ! ! ! ! w f ! ! ! 6 D V ! T ' < ! ! ! ! ! ! !     /!/!/!/!/!/!/!/!/!",
"/!/!/!/!/!/!/!/!/!    ! ! ! ! ! ! C d @ ! ! ! ! p q ! x ' y ! C z ! ! ! !     /!/!/!/!/!/!/!/!/!",
"/!/!/!/!/!/!/!/!/!    ! ! ! = { ! | ' } ! ! ! ! ~ ' J ! Z g N p I ! ! ! !     /!/!/!/!/!/!/!/!/!",
"/!/!/!/!/!/!/!/!/!    ! ! ! J  !) !!' z ! ! ! ! | ' c ! t ' ' B #!6 ! ! !     /!/!/!/!/!/!/!/!/!",
"/!/!/!/!/!/!/!/!/!    ! ! ! x p 4 ' M # ! ! 3 ^ > ' V ! $!' ' j %!K ! ! !     /!/!/!/!/!/!/!/!/!",
"/!/!/!/!/!/!/!/!/!    ! ! ! T P Y ' &!! ! ! '!(!M ' ; ! ! > ' ' y h ! ! !     /!/!/!/!/!/!/!/!/!",
"/!/!/!/!/!/!/!/!/!    ! ! ! y y ' ' P ! ! ! )!] Z ' ' *!! (!l N 7 6 ! ! !     /!/!/!/!/!/!/!/!/!",
"/!/!/!/!/!/!/!/!/!    ! ! ! +!R T p 5 ! ! ! < ,!,!' ' $ ! W C ! ! ! ! ! !     /!/!/!/!/!/!/!/!/!",
"/!/!/!/!/!/!/!/!/!    ! ! ! ! ! ! ! ! ! ! ! ! -!N (!.!! ! ! ! ! ! ! ! ! !     /!/!/!/!/!/!/!/!/!",
"/!/!/!/!/!/!/!/!/!    ! ! ! ! ! ! ! ! ! ! ! ! ! ! ! ! ! ! ! ! ! ! ! ! ! !     /!/!/!/!/!/!/!/!/!",
"/!/!/!/!/!/!/!/!/!    ! ! ! ! ! ! ! ! ! ! ! ! ! ! ! ! ! ! ! ! ! ! ! ! ! !     /!/!/!/!/!/!/!/!/!",
"/!/!/!/!/!/!/!/!/!    ! ! ! ! ! ! ! ! ! ! ! ! ! ! ! ! ! ! ! ! ! ! ! ! ! !     /!/!/!/!/!/!/!/!/!",
"/!/!/!/!/!/!/!/!/!    ! ! ! ! ! ! ! ! ! ! ! ! ! ! ! ! ! ! ! ! ! ! ! ! ! !     /!/!/!/!/!/!/!/!/!",
"/!/!/!/!/!/!/!/!/!    ! ! ! ! ! ! ! ! ! ! ! ! ! ! ! ! ! ! ! ! ! ! ! ! ! !     /!/!/!/!/!/!/!/!/!",
"/!/!/!/!/!/!/!/!/!    ! ! ! ! ! ! ! ! ! ! ! ! ! ! ! ! ! ! ! ! ! ! ! ! ! !     /!/!/!/!/!/!/!/!/!",
"/!/!/!/!/!/!/!/!/!                                                            /!/!/!/!/!/!/!/!/!",
"/!/!/!/!/!/!/!/!/!                                                            /!/!/!/!/!/!/!/!/!"
};
