/* XPM */
static const char *GostCryptIcon16x16[] = {
"16 16 60 1 0 0",
"  c #000000",
"! c #27A527",
"# c #268825",
"$ c #234522",
"% c #234622",
"& c #234422",
"' c #245923",
"( c #27A027",
") c #268F26",
"* c #279D26",
"+ c #257B24",
", c #244C22",
"- c #245223",
". c #269226",
"/ c #245523",
"0 c #268E26",
"1 c #246F24",
"2 c #257724",
"3 c #244E23",
"4 c #269626",
"5 c #245823",
"6 c #268A25",
"7 c #234722",
"8 c #246624",
"9 c #247024",
": c #246324",
"; c #245A23",
"< c #222A20",
"= c #212020",
"> c #212120",
"? c #222E20",
"@ c #258325",
"A c #269426",
"B c #223120",
"C c #212720",
"D c #222820",
"E c #223220",
"F c #279F27",
"G c #234A22",
"H c #279C26",
"I c #279E27",
"J c #244A22",
"K c #257524",
"L c #246D24",
"M c #246224",
"N c #268725",
"O c #257C25",
"P c #257E25",
"Q c #257924",
"R c #246824",
"S c #233921",
"T c #245B23",
"U c #269926",
"V c #223721",
"W c #212520",
"X c #27A427",
"Y c #245623",
"Z c #27A327",
"[ c #279D27",
"] c None",
"                ",
" !!!!#$%&'(!!!! ",
" !!!)&*!!+,!!!! ",
" !!!-.!!!!/0!!! ",
" !!!%!!!!!12!!! ",
" !!!34!!!!56!!! ",
" !!!6789:;7!!!! ",
" !!!!8<=>?@!!!! ",
" !!!!ABCDEF!!!! ",
" !!!!!$AGGH!!!! ",
" !!!!IJ!$KL!!!! ",
" !!!!@M!;N$(I!! ",
" !!!O&P!QR3S#!! ",
" !!!T=U0V$PWK!! ",
" !!X@L!I,YZ[!!! ",
"                "
};
